<svg width="477" height="73" viewBox="0 0 477 73" fill="none" xmlns="http://www.w3.org/2000/svg">
<path d="M4.90422 15.3522H14.5241L27.407 46.7968H27.9155L40.7985 15.3522H50.4183V58.7474H42.875V28.9344H42.4724L30.4794 58.6203H24.8431L12.8501 28.8708H12.4475V58.7474H4.90422V15.3522ZM63.4072 70.9523C62.3619 70.9523 61.3943 70.8676 60.5043 70.6981C59.6285 70.5427 58.9293 70.359 58.4066 70.1472L60.1865 64.1718C61.3025 64.4967 62.2983 64.6521 63.1742 64.638C64.05 64.6239 64.8198 64.3484 65.4838 63.8116C66.1618 63.289 66.7339 62.4131 67.2001 61.1842L67.857 59.4255L56.0546 26.201H64.1912L71.6922 50.7803H72.0312L79.5533 26.201H87.7111L74.6798 62.6886C74.0724 64.412 73.2672 65.8882 72.2643 67.1171C71.2613 68.3602 70.0324 69.3067 68.5774 69.9565C67.1365 70.6204 65.4131 70.9523 63.4072 70.9523ZM117.185 59.4043C115.123 59.4043 113.265 59.037 111.612 58.3025C109.974 57.5538 108.674 56.452 107.714 54.997C106.767 53.542 106.294 51.748 106.294 49.6149C106.294 47.7786 106.633 46.26 107.311 45.0593C107.989 43.8586 108.914 42.898 110.087 42.1776C111.259 41.4572 112.58 40.9133 114.049 40.546C115.532 40.1646 117.065 39.8892 118.647 39.7196C120.554 39.5219 122.101 39.3453 123.288 39.1899C124.474 39.0204 125.336 38.7661 125.873 38.4271C126.424 38.074 126.699 37.5301 126.699 36.7956V36.6684C126.699 35.0722 126.226 33.8362 125.279 32.9603C124.333 32.0845 122.97 31.6466 121.19 31.6466C119.311 31.6466 117.821 32.0563 116.719 32.8756C115.631 33.6949 114.897 34.6625 114.515 35.7785L107.353 34.7614C107.918 32.7838 108.851 31.131 110.15 29.8032C111.45 28.4612 113.039 27.4582 114.918 26.7943C116.797 26.1163 118.873 25.7772 121.147 25.7772C122.715 25.7772 124.276 25.9609 125.83 26.3282C127.384 26.6954 128.804 27.3029 130.089 28.1504C131.375 28.9839 132.406 30.121 133.183 31.5619C133.974 33.0027 134.369 34.8038 134.369 36.9651V58.7474H126.996V54.2765H126.741C126.275 55.1806 125.618 56.0282 124.771 56.8192C123.937 57.5962 122.885 58.2248 121.614 58.7051C120.356 59.1712 118.88 59.4043 117.185 59.4043ZM119.177 53.768C120.717 53.768 122.052 53.4643 123.182 52.8569C124.312 52.2353 125.18 51.416 125.788 50.3989C126.409 49.3819 126.72 48.273 126.72 47.0723V43.237C126.48 43.4348 126.07 43.6184 125.491 43.788C124.926 43.9575 124.291 44.1058 123.584 44.2329C122.878 44.3601 122.179 44.4731 121.486 44.5719C120.794 44.6708 120.194 44.7556 119.685 44.8262C118.541 44.9816 117.517 45.2359 116.613 45.589C115.709 45.9422 114.996 46.4366 114.473 47.0723C113.95 47.6938 113.689 48.499 113.689 49.4878C113.689 50.9004 114.205 51.9669 115.236 52.6874C116.267 53.4078 117.581 53.768 119.177 53.768ZM149.753 39.6773V58.7474H142.082V26.201H149.414V31.7314H149.795C150.544 29.9091 151.737 28.4612 153.376 27.3876C155.029 26.314 157.07 25.7772 159.5 25.7772C161.746 25.7772 163.702 26.2575 165.369 27.2181C167.05 28.1787 168.35 29.5701 169.268 31.3923C170.2 33.2146 170.659 35.4253 170.645 38.0245V58.7474H162.975V39.2111C162.975 37.0357 162.41 35.3335 161.28 34.1045C160.164 32.8756 158.617 32.2611 156.639 32.2611C155.297 32.2611 154.104 32.5577 153.058 33.151C152.027 33.7302 151.215 34.5707 150.621 35.6725C150.042 36.7744 149.753 38.1093 149.753 39.6773ZM204.166 34.8038L197.174 35.5666C196.976 34.8603 196.63 34.1964 196.136 33.5748C195.655 32.9533 195.006 32.4518 194.186 32.0704C193.367 31.689 192.364 31.4983 191.177 31.4983C189.581 31.4983 188.239 31.8444 187.151 32.5366C186.078 33.2287 185.548 34.1257 185.562 35.2276C185.548 36.174 185.894 36.9439 186.601 37.5372C187.321 38.1305 188.508 38.6178 190.16 38.9992L195.712 40.1858C198.791 40.8497 201.08 41.9021 202.577 43.343C204.089 44.7838 204.851 46.6697 204.865 49.0005C204.851 51.0487 204.251 52.8569 203.064 54.4249C201.892 55.9787 200.26 57.1936 198.17 58.0694C196.079 58.9452 193.678 59.3831 190.965 59.3831C186.982 59.3831 183.775 58.5497 181.346 56.8828C178.916 55.2018 177.468 52.8639 177.002 49.8692L184.482 49.1488C184.821 50.6179 185.541 51.7268 186.643 52.4755C187.745 53.2242 189.179 53.5985 190.944 53.5985C192.767 53.5985 194.229 53.2242 195.33 52.4755C196.446 51.7268 197.004 50.8015 197.004 49.6997C197.004 48.7674 196.644 47.9975 195.924 47.3901C195.217 46.7827 194.116 46.3165 192.618 45.9916L187.067 44.8262C183.945 44.1764 181.635 43.0816 180.138 41.5419C178.64 39.988 177.899 38.0245 177.913 35.6513C177.899 33.6454 178.443 31.9079 179.545 30.4388C180.66 28.9556 182.207 27.8114 184.185 27.0062C186.177 26.1869 188.472 25.7772 191.071 25.7772C194.885 25.7772 197.887 26.5895 200.077 28.214C202.28 29.8385 203.644 32.0351 204.166 34.8038ZM217.907 58.7474L208.711 26.201H216.53L222.251 49.0852H222.548L228.396 26.201H236.13L241.978 48.9581H242.296L247.932 26.201H255.772L246.555 58.7474H238.567L232.464 36.7532H232.019L225.917 58.7474H217.907ZM274.604 59.3831C271.341 59.3831 268.523 58.7051 266.15 57.349C263.791 55.9787 261.975 54.0435 260.704 51.5432C259.433 49.0287 258.797 46.0693 258.797 42.6649C258.797 39.3171 259.433 36.3788 260.704 33.8503C261.989 31.3076 263.783 29.3299 266.086 27.9173C268.389 26.4906 271.094 25.7772 274.201 25.7772C276.207 25.7772 278.1 26.1021 279.88 26.7519C281.674 27.3876 283.256 28.3764 284.626 29.7184C286.011 31.0604 287.099 32.7696 287.89 34.8462C288.681 36.9086 289.076 39.3665 289.076 42.22V44.5719H262.399V39.4018H281.724C281.709 37.9327 281.392 36.626 280.77 35.4818C280.148 34.3235 279.28 33.4124 278.164 32.7484C277.062 32.0845 275.776 31.7526 274.307 31.7526C272.739 31.7526 271.362 32.134 270.176 32.8968C268.989 33.6454 268.064 34.6343 267.4 35.8632C266.75 37.0781 266.418 38.413 266.404 39.868V44.3812C266.404 46.2741 266.75 47.8986 267.442 49.2547C268.134 50.5967 269.102 51.6279 270.345 52.3483C271.588 53.0546 273.043 53.4078 274.71 53.4078C275.826 53.4078 276.836 53.2524 277.74 52.9416C278.644 52.6167 279.428 52.1435 280.092 51.522C280.756 50.9004 281.257 50.1305 281.596 49.2124L288.758 50.0175C288.306 51.9104 287.445 53.5632 286.173 54.9758C284.916 56.3743 283.306 57.462 281.342 58.2389C279.379 59.0017 277.133 59.3831 274.604 59.3831ZM295.565 58.7474V26.201H303.003V31.6254H303.342C303.935 29.7467 304.952 28.2987 306.393 27.2817C307.848 26.2505 309.508 25.7349 311.372 25.7349C311.796 25.7349 312.269 25.7561 312.792 25.7984C313.329 25.8267 313.774 25.8761 314.127 25.9468V33.0027C313.802 32.8897 313.286 32.7908 312.58 32.7061C311.888 32.6072 311.217 32.5577 310.567 32.5577C309.169 32.5577 307.911 32.8615 306.796 33.4689C305.694 34.0622 304.825 34.8885 304.189 35.948C303.554 37.0074 303.236 38.2294 303.236 39.6137V58.7474H295.565ZM346.101 59.3195C343.544 59.3195 341.256 58.6627 339.236 57.349C337.216 56.0352 335.62 54.1282 334.447 51.6279C333.275 49.1276 332.689 46.0905 332.689 42.5166C332.689 38.9003 333.282 35.8491 334.468 33.3629C335.669 30.8626 337.287 28.9768 339.321 27.7054C341.355 26.42 343.622 25.7772 346.122 25.7772C348.029 25.7772 349.597 26.1021 350.826 26.7519C352.055 27.3876 353.03 28.1575 353.75 29.0615C354.471 29.9515 355.029 30.792 355.424 31.583H355.742V15.3522H363.434V58.7474H355.891V53.6197H355.424C355.029 54.4107 354.457 55.2512 353.708 56.1412C352.959 57.017 351.971 57.7657 350.742 58.3872C349.513 59.0088 347.966 59.3195 346.101 59.3195ZM348.241 53.0264C349.866 53.0264 351.25 52.5885 352.394 51.7127C353.539 50.8227 354.407 49.5867 355.001 48.0046C355.594 46.4225 355.891 44.579 355.891 42.4742C355.891 40.3694 355.594 38.5401 355.001 36.9863C354.421 35.4324 353.56 34.2246 352.416 33.3629C351.286 32.5012 349.894 32.0704 348.241 32.0704C346.532 32.0704 345.105 32.5154 343.961 33.4053C342.817 34.2952 341.955 35.5242 341.376 37.0922C340.797 38.6602 340.507 40.4542 340.507 42.4742C340.507 44.5084 340.797 46.3236 341.376 47.9198C341.969 49.5019 342.838 50.7521 343.982 51.6703C345.141 52.5744 346.56 53.0264 348.241 53.0264ZM371.608 58.7474V26.201H379.278V58.7474H371.608ZM375.464 21.5818C374.249 21.5818 373.204 21.1792 372.328 20.374C371.452 19.5547 371.014 18.573 371.014 17.4287C371.014 16.2704 371.452 15.2886 372.328 14.4835C373.204 13.6642 374.249 13.2545 375.464 13.2545C376.693 13.2545 377.738 13.6642 378.6 14.4835C379.476 15.2886 379.914 16.2704 379.914 17.4287C379.914 18.573 379.476 19.5547 378.6 20.374C377.738 21.1792 376.693 21.5818 375.464 21.5818ZM396.531 59.4043C394.469 59.4043 392.611 59.037 390.959 58.3025C389.32 57.5538 388.02 56.452 387.06 54.997C386.113 53.542 385.64 51.748 385.64 49.6149C385.64 47.7786 385.979 46.26 386.657 45.0593C387.335 43.8586 388.26 42.898 389.433 42.1776C390.605 41.4572 391.926 40.9133 393.395 40.546C394.879 40.1646 396.411 39.8892 397.993 39.7196C399.9 39.5219 401.447 39.3453 402.634 39.1899C403.82 39.0204 404.682 38.7661 405.219 38.4271C405.77 38.074 406.045 37.5301 406.045 36.7956V36.6684C406.045 35.0722 405.572 33.8362 404.625 32.9603C403.679 32.0845 402.316 31.6466 400.536 31.6466C398.657 31.6466 397.167 32.0563 396.065 32.8756C394.977 33.6949 394.243 34.6625 393.861 35.7785L386.7 34.7614C387.265 32.7838 388.197 31.131 389.496 29.8032C390.796 28.4612 392.385 27.4582 394.264 26.7943C396.143 26.1163 398.219 25.7772 400.494 25.7772C402.062 25.7772 403.623 25.9609 405.176 26.3282C406.73 26.6954 408.15 27.3029 409.435 28.1504C410.721 28.9839 411.752 30.121 412.529 31.5619C413.32 33.0027 413.716 34.8038 413.716 36.9651V58.7474H406.342V54.2765H406.088C405.621 55.1806 404.965 56.0282 404.117 56.8192C403.284 57.5962 402.231 58.2248 400.96 58.7051C399.703 59.1712 398.226 59.4043 396.531 59.4043ZM398.523 53.768C400.063 53.768 401.398 53.4643 402.528 52.8569C403.658 52.2353 404.527 51.416 405.134 50.3989C405.756 49.3819 406.066 48.273 406.066 47.0723V43.237C405.826 43.4348 405.417 43.6184 404.837 43.788C404.272 43.9575 403.637 44.1058 402.93 44.2329C402.224 44.3601 401.525 44.4731 400.833 44.5719C400.14 44.6708 399.54 44.7556 399.032 44.8262C397.887 44.9816 396.863 45.2359 395.959 45.589C395.055 45.9422 394.342 46.4366 393.819 47.0723C393.296 47.6938 393.035 48.499 393.035 49.4878C393.035 50.9004 393.551 51.9669 394.582 52.6874C395.613 53.4078 396.927 53.768 398.523 53.768ZM421.428 58.7474V26.201H428.866V31.6254H429.205C429.798 29.7467 430.815 28.2987 432.256 27.2817C433.711 26.2505 435.371 25.7349 437.235 25.7349C437.659 25.7349 438.132 25.7561 438.655 25.7984C439.192 25.8267 439.637 25.8761 439.99 25.9468V33.0027C439.665 32.8897 439.15 32.7908 438.443 32.7061C437.751 32.6072 437.08 32.5577 436.43 32.5577C435.032 32.5577 433.775 32.8615 432.659 33.4689C431.557 34.0622 430.688 34.8885 430.052 35.948C429.417 37.0074 429.099 38.2294 429.099 39.6137V58.7474H421.428ZM450.844 70.9523C449.799 70.9523 448.831 70.8676 447.941 70.6981C447.065 70.5427 446.366 70.359 445.843 70.1472L447.623 64.1718C448.739 64.4967 449.735 64.6521 450.611 64.638C451.487 64.6239 452.257 64.3484 452.921 63.8116C453.599 63.289 454.171 62.4131 454.637 61.1842L455.294 59.4255L443.492 26.201H451.628L459.129 50.7803H459.468L466.99 26.201H475.148L462.117 62.6886C461.509 64.412 460.704 65.8882 459.701 67.1171C458.698 68.3602 457.469 69.3067 456.014 69.9565C454.573 70.6204 452.85 70.9523 450.844 70.9523Z" fill="#5A7E64"/>
<circle cx="375.692" cy="15.9181" r="5.96684" fill="#E9A37F"/>
<circle cx="92.5437" cy="51.373" r="6.05931" fill="#E9A37F"/>
</svg>
